<svg width="36" height="19" viewBox="0 0 36 19" fill="none" xmlns="http://www.w3.org/2000/svg">
<path d="M17.9996 0.5C17.23 0.5 16.4832 0.603923 15.7745 0.809104C12.8255 1.63516 10.5039 4.07069 9.71652 7.1644C9.52094 7.90785 9.42188 8.69127 9.42188 9.49867C9.42188 12.8269 11.1466 15.7367 13.7069 17.2902C12.9703 15.9659 12.5512 14.4257 12.5512 12.7842C12.5512 12.4591 12.5664 12.1367 12.602 11.8223C13.0237 7.62272 16.2063 4.28386 20.2094 3.84152C20.5092 3.80422 20.8165 3.78823 21.1264 3.78823C22.691 3.78823 24.1592 4.2279 25.4216 5.00067C23.9458 2.30933 21.1721 0.5 17.9996 0.5Z" fill="#045599"/>
<path d="M26.2861 7.16431C25.608 9.829 23.7893 12.0061 21.4144 13.0853C20.3679 13.5649 19.2147 13.8287 18.0005 13.8287C15.9558 13.8287 14.0762 13.0773 12.6055 11.8195C12.5699 12.134 12.5547 12.4564 12.5547 12.7815C12.5547 14.4229 12.9738 15.9631 13.7104 17.2875C14.353 17.6818 15.0439 17.9856 15.778 18.1908C16.4867 18.396 17.2334 18.4999 18.0031 18.4999C22.7428 18.4999 26.5833 14.4682 26.5833 9.49858C26.5808 8.69118 26.4817 7.90776 26.2861 7.16431Z" fill="#4478BB"/>
<path d="M26.2861 7.16447C25.6079 9.82917 23.7893 12.0062 21.4143 13.0854C21.8741 11.9876 22.1255 10.7725 22.1255 9.49874C22.1255 7.35367 21.4093 5.38446 20.2129 3.83894C20.5126 3.80163 20.82 3.78564 21.1298 3.78564C22.6945 3.78564 24.1627 4.22532 25.4251 4.99808C25.8035 5.66958 26.0931 6.39704 26.2861 7.16447Z" fill="#F48020"/>
<path d="M7.10957 9.50133C7.10957 7.2843 7.7141 5.21384 8.75552 3.46313C4.47555 5.76543 1.62055 8.87513 0 10.9669C1.0211 12.4485 2.80167 14.6282 5.58301 16.3229C7.46772 17.4714 9.40577 18.1429 11.293 18.4973C8.7479 16.4055 7.10957 13.1546 7.10957 9.50133Z" fill="#02519E"/>
<path d="M36.0001 8.03313C34.979 6.55156 33.1984 4.37184 30.417 2.67976C28.5323 1.53128 26.5943 0.859775 24.707 0.505371C27.2522 2.59715 28.8905 5.84808 28.8905 9.50137C28.8905 11.7184 28.286 13.7889 27.2445 15.5396C31.5245 13.2373 34.3795 10.1249 36.0001 8.03313Z" fill="#F48020"/>
</svg>
