<?xml version="1.0" encoding="utf-8"?>
<!-- Generator: Adobe Illustrator 26.0.3, SVG Export Plug-In . SVG Version: 6.00 Build 0)  -->
<svg version="1.0" id="katman_1" xmlns="http://www.w3.org/2000/svg" xmlns:xlink="http://www.w3.org/1999/xlink" x="0px" y="0px"
	 viewBox="0 0 800 600" style="enable-background:new 0 0 800 600;" xml:space="preserve">
<style type="text/css">
	.st0{fill:none;}
	.st1{fill:#3E54D1;}
</style>
<g>
	<path class="st1" d="M401.7,86.8l44.5,27.4l-25.3,13.7l-19.2-10.1l-158.1,92.9v104.1l127.7,76.7l-26.3,14.2l-129.8-78.7v-131
		L401.7,86.8z"/>
	<path class="st1" d="M466,127.4L280.6,232.6v74.2l24.8,14.1v-74.6L466,157.9l87.2,49.3V227l27.9,15.3v-49.8L466,127.4z"/>
	<path class="st1" d="M398,512.3l-44.5-27.4l25.3-13.7l19.2,10.2l158.2-93V284.3l-127.8-76.6l26.4-14.2l129.7,78.7v131L398,512.3z"
		/>
	<path class="st1" d="M333.7,471.8l185.6-105.1v-74.2l-24.8-14.2v74.6l-160.8,88.4L246.5,392v-19.8L218.6,357v49.7L333.7,471.8z"/>
</g>
</svg>
